<svg id="Layer_1" data-name="Layer 1" xmlns="http://www.w3.org/2000/svg" viewBox="0 0 16.63 6.67"><defs><style>.cls-1{fill:#c8cbcc;}</style></defs><title>Business-Insider-Logo</title><path class="cls-1" d="M4.14,4.09c.24-.06.26,0,.27-.36,0-.69,0-1.38,0-2.06,0-.18-.06-.24-.24-.26a.14.14,0,0,1-.09,0H5.17l.22,0a.54.54,0,0,1,.33.89,3,3,0,0,1-.23.25l.24.13a.76.76,0,0,1,.39.8.8.8,0,0,1-.66.61,1.69,1.69,0,0,1-.31,0h-1ZM5.7,3.47s0-.08,0-.13A.73.73,0,0,0,5,2.67c-.06,0-.13,0-.13.08,0,.33,0,.66,0,1a.24.24,0,0,0,.1.17A.48.48,0,0,0,5.7,3.47ZM4.85,2c0,.14,0,.27,0,.41s0,.11.12.12a.42.42,0,0,0,.51-.47A.53.53,0,0,0,5,1.5c-.09,0-.14,0-.13.13S4.85,1.88,4.85,2Z" transform="translate(-4.08 -1.37)"/><path class="cls-1" d="M12.9,8,13,8c.12,0,.16-.08.16-.19,0-.35,0-.71,0-1.06s0-.47,0-.7,0-.24-.24-.28l-.08,0,.12,0H14.3a1.58,1.58,0,0,1,.39.06,1,1,0,0,1,.77,1,1.15,1.15,0,0,1-.65,1.12,1.93,1.93,0,0,1-.88.16L13,8H12.9Zm.67-1.2h0c0,.26,0,.52,0,.78s.05.27.26.31a1.18,1.18,0,0,0,.69-.06.71.71,0,0,0,.43-.44,1.43,1.43,0,0,0,0-.69,1.1,1.1,0,0,0-1.3-.85c-.11,0-.14.06-.14.16C13.57,6.25,13.57,6.51,13.57,6.77Z" transform="translate(-4.08 -1.37)"/><path class="cls-1" d="M12.12,4.09v0c.24-.06.25-.06.26-.32,0-.44,0-.88,0-1.32,0-.19,0-.37,0-.56a1.52,1.52,0,0,1,0-.18l1.85,1.84c0-.21,0-.4,0-.58s0-.48,0-.71,0-.33-.31-.43h.86l-.09,0c-.15,0-.2.11-.2.25q0,.91,0,1.81c0,.09,0,.17,0,.3a1.33,1.33,0,0,1-.18-.12L12.75,2.52l-.11-.1c0,.08,0,.14,0,.2,0,.35,0,.71,0,1.06s0,.32.3.41Z" transform="translate(-4.08 -1.37)"/><path class="cls-1" d="M5.87,8l0,0c.24-.07.24-.07.25-.33,0-.62,0-1.24,0-1.87,0,0,0-.09,0-.17a1.35,1.35,0,0,1,.17.12L7.94,7.3l.13.12c0-.2,0-.36,0-.52s0-.54,0-.81,0-.31-.29-.41h.77v0c-.18,0-.22,0-.22.31,0,.62,0,1.24,0,1.85a.67.67,0,0,1,0,.16A.63.63,0,0,1,8.06,8L6.48,6.41l-.09-.08c0,.24,0,.46,0,.68s0,.4,0,.59,0,.3.28.37l0,0Z" transform="translate(-4.08 -1.37)"/><path class="cls-1" d="M18.19,5.71v0a13.06,13.06,0,0,1,1.34,0,.51.51,0,0,1,.34.83,3.86,3.86,0,0,1-.34.39c.26.29.52.59.8.88a1.38,1.38,0,0,0,.36.18c-.34,0-.68.08-.92-.23l-.47-.62a.41.41,0,0,0-.4-.11.11.11,0,0,0,0,.08c0,.22,0,.45,0,.67a.14.14,0,0,0,.15.14.26.26,0,0,1,.15,0h-1l0,0c.19,0,.21-.06.21-.25,0-.6,0-1.19,0-1.79a.18.18,0,0,0-.18-.19Zm.68.64c0,.13,0,.26,0,.4s0,.11.05.12a.54.54,0,0,0,.46,0,.62.62,0,0,0,.17-.72.52.52,0,0,0-.57-.3c-.08,0-.12,0-.11.13S18.87,6.22,18.87,6.35Z" transform="translate(-4.08 -1.37)"/><path class="cls-1" d="M6.34,1.78h1v0c-.22.06-.23.06-.23.29,0,.46,0,.93,0,1.39a.55.55,0,0,0,.64.5.56.56,0,0,0,.58-.55c0-.48,0-1,0-1.43a.15.15,0,0,0-.14-.16.37.37,0,0,1-.14-.05h.83s0,0,0,0c-.24.07-.23.07-.24.33s0,.8,0,1.2a.83.83,0,0,1-.88.8,2.1,2.1,0,0,1-.48,0,.81.81,0,0,1-.61-.87c0-.37,0-.73,0-1.1s0-.27-.25-.31h0Z" transform="translate(-4.08 -1.37)"/><path class="cls-1" d="M16.67,1.78l0,.41c-.06-.26-.26-.25-.45-.25h-.35v.83a2,2,0,0,0,.79-.07l0,.49,0,0c0-.29-.18-.27-.35-.28-.37,0-.37,0-.37.33,0,.14,0,.28,0,.42s.06.22.21.24a2.46,2.46,0,0,0,.42,0,.24.24,0,0,0,.23-.2.5.5,0,0,1,0-.08h0a3.45,3.45,0,0,1-.06.39s-.09.06-.14.06l-1.07,0h-.34s0,0,0,0c.22,0,.23,0,.23-.28,0-.58,0-1.16,0-1.75a.18.18,0,0,0-.18-.2.21.21,0,0,1-.12-.05Z" transform="translate(-4.08 -1.37)"/><path class="cls-1" d="M16.73,6.7l.79,0a.1.1,0,0,1,0,0c0,.13,0,.27-.05.42,0-.3-.24-.26-.43-.26h-.31c0,.28,0,.55,0,.81,0,.11.1.17.2.18h.29c.27,0,.31,0,.4-.29a.57.57,0,0,1,0,.42.19.19,0,0,1-.12,0H16.39A3.11,3.11,0,0,1,16,8c.3,0,.26-.22.26-.4,0-.52,0-1,0-1.57,0-.23,0-.23-.25-.29l-.06,0h1.58l0,.41h0a.26.26,0,0,0-.3-.23h-.47Z" transform="translate(-4.08 -1.37)"/><path class="cls-1" d="M18.42,2.26a.48.48,0,0,0-.69-.34.32.32,0,0,0-.08.57,2.7,2.7,0,0,0,.27.17c.11.07.23.13.33.21a.69.69,0,0,1,.26.77.67.67,0,0,1-.62.49,4,4,0,0,1-.66,0c-.1,0-.14-.07-.13-.17s0-.28,0-.41h0l0,.13a.47.47,0,0,0,.48.36c.27,0,.43-.09.5-.3a.36.36,0,0,0-.11-.39,3.74,3.74,0,0,0-.32-.23,2.69,2.69,0,0,1-.38-.28.59.59,0,0,1,.19-1,1.4,1.4,0,0,1,.86,0s.06,0,.06,0,0,.29,0,.44Z" transform="translate(-4.08 -1.37)"/><path class="cls-1" d="M9.22,3.51a.74.74,0,0,1,0,.08.54.54,0,0,0,.83.33.39.39,0,0,0,0-.63,3.22,3.22,0,0,0-.33-.22L9.51,2.9a.62.62,0,0,1,.32-1.15,3.62,3.62,0,0,1,.59,0c.07,0,.1,0,.09.11s0,.25,0,.38h0s0,0,0,0a.37.37,0,0,0-.28-.33A.51.51,0,0,0,9.66,2a.3.3,0,0,0,0,.45,1.69,1.69,0,0,0,.25.18c.13.08.26.15.38.24a.68.68,0,0,1,.27.76.64.64,0,0,1-.59.5,4.09,4.09,0,0,1-.69,0c-.1,0-.14-.08-.13-.18s0-.27,0-.4Z" transform="translate(-4.08 -1.37)"/><path class="cls-1" d="M19,3.5a.46.46,0,0,0,.39.48.78.78,0,0,0,.36,0,.38.38,0,0,0,.15-.63,1.47,1.47,0,0,0-.25-.19c-.12-.08-.25-.15-.37-.24a.62.62,0,0,1,.33-1.15,3,3,0,0,1,.59,0,.13.13,0,0,1,.09.09,1.57,1.57,0,0,1,0,.38.26.26,0,0,1,0-.06A.49.49,0,0,0,19.45,2a.31.31,0,0,0,0,.45,1.53,1.53,0,0,0,.26.2c.13.09.28.16.4.26a.7.7,0,0,1,.25.8.73.73,0,0,1-.68.46c-.19,0-.38,0-.58,0a.13.13,0,0,1-.13-.16c0-.14,0-.28,0-.43Z" transform="translate(-4.08 -1.37)"/><path class="cls-1" d="M9.28,7.4l0,.12a.45.45,0,0,0,.41.37.47.47,0,0,0,.54-.21.38.38,0,0,0-.1-.49,4,4,0,0,0-.39-.25.93.93,0,0,1-.44-.47.57.57,0,0,1,.3-.72,1.36,1.36,0,0,1,.89-.06s.06,0,.06,0,0,.3,0,.45h0l0,0c0-.32-.38-.44-.68-.32a.31.31,0,0,0-.1.54,2.78,2.78,0,0,0,.33.22,3.63,3.63,0,0,1,.35.24.66.66,0,0,1,.2.73A.64.64,0,0,1,10,8a3.72,3.72,0,0,1-.64,0,.16.16,0,0,1-.17-.2c0-.13,0-.27,0-.4Z" transform="translate(-4.08 -1.37)"/><path class="cls-1" d="M5.39,8H4.26l0,0c.24-.06.26-.07.26-.34,0-.68,0-1.36,0-2,0-.2,0-.24-.24-.27a.07.07,0,0,1-.05,0h1l0,0C5,5.35,5,5.38,5,5.63c0,.64,0,1.27,0,1.91,0,0,0,.07,0,.11,0,.25,0,.28.28.31l.1,0Z" transform="translate(-4.08 -1.37)"/><path class="cls-1" d="M10.87,4.09c.27-.09.27-.1.27-.38q0-.77,0-1.55c0-.28,0-.28-.25-.38h.93l0,0c-.17,0-.22.12-.22.27,0,.57,0,1.15,0,1.72,0,.23,0,.24.26.25a.07.07,0,0,1,.06,0Z" transform="translate(-4.08 -1.37)"/><path class="cls-1" d="M12.25,8h-1V8c.2,0,.23-.13.23-.29,0-.58,0-1.17,0-1.75,0-.17-.12-.21-.25-.24h.9v0l-.06,0c-.14,0-.18.09-.18.21s0,.37,0,.56q0,.56,0,1.11c0,.3,0,.3.3.35l0,0Z" transform="translate(-4.08 -1.37)"/></svg>