<?xml version="1.0" encoding="utf-8"?>
<!-- Generator: Adobe Illustrator 20.1.0, SVG Export Plug-In . SVG Version: 6.00 Build 0)  -->
<svg version="1.1" id="Layer_1" xmlns="http://www.w3.org/2000/svg" xmlns:xlink="http://www.w3.org/1999/xlink" x="0px" y="0px"
	 viewBox="0 0 296.7 47.6" style="enable-background:new 0 0 296.7 47.6;" xml:space="preserve">
<style type="text/css">
	.st0{fill:#FFFFFF;}
</style>
<g id="XMLID_1_">
	<path id="XMLID_417_" class="st0" d="M24,47.6c-13.7,0-24-10.2-24-23.8C0,10.2,10.3,0,24,0c13.7,0,24,10.2,24,23.8
		C47.9,37.3,37.6,47.6,24,47.6z M24,3C12,3,3,11.9,3,23.8c0,11.8,9,20.8,21,20.8c11.9,0,21-8.9,21-20.8C44.9,11.9,35.9,3,24,3z"/>
	<path id="XMLID_414_" class="st0" d="M87.2,21.5H65.8V0h21.4c5.9,0,10.8,4.8,10.8,10.8C97.9,16.6,93,21.5,87.2,21.5z M68.8,18.5
		h18.4c4.2,0,7.8-3.5,7.8-7.7c0-4.3-3.5-7.8-7.8-7.8H68.8V18.5z"/>
	<rect id="XMLID_413_" x="116" y="0.3" class="st0" width="3" height="47.3"/>
	<path id="XMLID_422_" class="st0" d="M214.8,47.6c-13.7,0-24-10.2-24-23.8c0-13.6,10.3-23.8,24-23.8c13.7,0,24,10.2,24,23.8
		C238.8,37.3,228.5,47.6,214.8,47.6z M214.8,3c-11.9,0-21,8.9-21,20.8c0,11.8,9,20.8,21,20.8c11.9,0,21-8.9,21-20.8
		C235.8,11.9,226.8,3,214.8,3z"/>
	<path id="XMLID_184_" class="st0" d="M96.8,47.6L71.5,32.5c-0.8-0.4-1.5-0.1-1.7,0c-0.3,0.2-0.9,0.6-0.9,1.5l0,13.6h-3l0-13.6
		c0-1.7,0.9-3.2,2.3-4.1c1.5-0.9,3.2-0.9,4.7-0.1L98.3,45L96.8,47.6z"/>
	<g id="XMLID_183_">
		<path id="XMLID_408_" class="st0" d="M157.2,47.5l-0.5,0c-6.9-0.1-13.1-2.4-18.6-6.8l1.9-2.3c4.9,4,10.6,6.1,16.8,6.2l0.5,0
			c5,0,9.1-1.4,11.6-4c1.8-1.8,2.7-4.2,2.7-6.9c0-3.5-1.5-7.7-12.3-9.1l-5.7-0.6c-3.7-0.5-14.9-1.9-14.2-11.7
			c0.5-7.4,7-12.1,16.7-12.1c0.3,0,0.6,0,0.9,0c6.1,0.2,11.8,2.1,16.9,5.8l-1.7,2.4c-4.6-3.3-9.8-5.1-15.3-5.2l-0.8,0
			c-7.9,0-13.3,3.7-13.7,9.3c-0.2,3.2,0.9,7.1,11.6,8.5l5.7,0.6c10,1.3,14.9,5.3,15,12.1c0,3.5-1.2,6.7-3.6,9.1
			C167.8,45.7,162.9,47.5,157.2,47.5z"/>
	</g>
	<g id="XMLID_406_">
		<path id="XMLID_123_" class="st0" d="M157.2,47.5l-0.5,0c-6.9-0.1-13.1-2.4-18.6-6.8l1.9-2.3c4.9,4,10.6,6.1,16.8,6.2l0.5,0
			c5,0,9.1-1.4,11.6-4c1.8-1.8,2.7-4.2,2.7-6.9c0-3.5-1.5-7.7-12.3-9.1l-5.7-0.6c-3.7-0.5-14.9-1.9-14.2-11.7
			c0.5-7.4,7-12.1,16.7-12.1c0.3,0,0.6,0,0.9,0c6.1,0.2,11.8,2.1,16.9,5.8l-1.7,2.4c-4.6-3.3-9.8-5.1-15.3-5.2l-0.8,0
			c-7.9,0-13.3,3.7-13.7,9.3c-0.2,3.2,0.9,7.1,11.6,8.5l5.7,0.6c10,1.3,14.9,5.3,15,12.1c0,3.5-1.2,6.7-3.6,9.1
			C167.8,45.7,162.9,47.5,157.2,47.5z"/>
	</g>
	<path id="XMLID_2_" class="st0" d="M258.1,47.6h-3l0-28c0-1.2,0.7-2.3,1.8-2.9c1.1-0.6,2.4-0.4,3.4,0.3l36.4,28.1l-1.8,2.4
		l-36.4-28.1l-0.4,0.2L258.1,47.6z"/>
	<path id="XMLID_421_" class="st0" d="M293.2,30.4c-0.7,0-1.3-0.2-1.9-0.6L254.9,2.4l1.8-2.4l36.4,27.3l0.4-0.2l0-27.1h3l0,27.1
		c0,1.2-0.7,2.3-1.8,2.9C294.2,30.3,293.7,30.4,293.2,30.4z"/>
</g>
</svg>
