<svg id="Layer_1" data-name="Layer 1" xmlns="http://www.w3.org/2000/svg" viewBox="0 0 227.99 190.45"><defs><style>.cls-1{fill:#819097;}</style></defs><title>Media-Player-Icon</title><path class="cls-1" d="M1.15,19.9V210.35h228V19.9ZM226.21,207.42H4.08V172.85H226.21Zm0-37.49H4.08V60.32H226.21Zm0-112.48H4.08V22.83H226.21Z" transform="translate(-1.15 -19.9)"/><rect class="cls-1" x="112.53" y="18.72" width="2.93" height="2.93"/><rect class="cls-1" x="75.03" y="18.72" width="2.93" height="2.93"/><rect class="cls-1" x="37.49" y="18.72" width="2.93" height="2.93"/><rect class="cls-1" x="150.02" y="18.72" width="2.93" height="2.93"/><rect class="cls-1" x="187.56" y="18.72" width="2.93" height="2.93"/><rect class="cls-1" x="112.53" y="168.79" width="2.93" height="2.93"/><rect class="cls-1" x="75.03" y="168.79" width="2.93" height="2.93"/><rect class="cls-1" x="37.49" y="168.79" width="2.93" height="2.93"/><rect class="cls-1" x="150.02" y="168.79" width="2.93" height="2.93"/><rect class="cls-1" x="187.56" y="168.79" width="2.93" height="2.93"/><path class="cls-1" d="M115.15,76.16a39,39,0,1,0,39,39A39,39,0,0,0,115.15,76.16Zm0,75a36,36,0,1,1,36-36A36.07,36.07,0,0,1,115.15,151.15Z" transform="translate(-1.15 -19.9)"/><path class="cls-1" d="M132.77,115.12,106.17,97.38v35.48ZM109.1,102.83l18.4,12.29-18.4,12.29Z" transform="translate(-1.15 -19.9)"/></svg>