<svg id="Layer_1" data-name="Layer 1" xmlns="http://www.w3.org/2000/svg" viewBox="0 0 20.62 6.79"><defs><style>.cls-1{fill:#c8cbcc;fill-rule:evenodd;}</style></defs><title>Time-logo-gray</title><path class="cls-1" d="M3.82,1.2H1.72V2H1.62V.73c.32,0,1.46,0,2.65,0,1.39,0,2.28,0,2.63,0V2.06H6.82c0-.07,0-.38,0-.41s0-.42,0-.45h-2V7.3l.57,0h0v.15H5.26c-.25,0-.66,0-.94,0l-1,0H3.25V7.33h0l.51,0h0V1.2ZM9.17,7.5c-.23,0-.63,0-.93,0s-.69,0-1,0H7.18V7.33l.38,0,.19,0V6.79c0-1,0-4,0-5.3,0-.14,0-.5,0-.55l-.18,0-.39,0V.73l1,0,1.07,0V.89H9.08l-.42,0v.52c0,1.19,0,4.3,0,5.35v.34c0,.08,0,.13,0,.13l.21,0,.38,0h0v.16ZM11.26,3s-.15.83-.37,2c-.11.63-.35,2.21-.37,2.31l.48,0h.07v.16H11l-.73,0-.6,0H9.49V7.34h.06l.48,0c0-.08.15-.86.2-1.13.17-.91.68-4,.74-4.37s.12-1,.13-1.06h.37s.45,1.39.52,1.6S13.42,6,13.42,6s.64-1.52,1.22-3.15c.12-.33.27-.76.38-1.11L15.36.72h.35s.09.62.12.9c.09.81.68,4.09.89,5.16.05.27.09.5.09.5l.44,0h.13v.16h-.1l-1.11,0-.8,0h-.14V7.33h.06l.52,0c0-.06,0-.26,0-.47s-.05-.4-.09-.65c-.08-.48-.43-2.48-.54-3l0-.14S14,5.83,13.77,6.38l0,.11c-.21.54-.39,1-.39,1H13L11.31,3.08l0-.1ZM22.18,2h-.09V2c0-.12,0-.45-.05-.73v0H19V3.87h2.17l.34,0v0c0-.16.06-.31.06-.43a.76.76,0,0,0,0-.09h.1s0,0,0,.09,0,.49,0,.71,0,.6,0,.74,0,.11,0,.11h-.11v0c0-.18,0-.31-.06-.49V4.32H19.68l-.64,0V7.05l1,0h2c0-.08,0-.24,0-.39s0-.42,0-.53h.09c0,.1,0,1.37,0,1.37H19.68l-1,0c-.44,0-.87,0-1,0h-.12V7.34h0a4.39,4.39,0,0,0,.56,0s0-.43,0-.43,0-5,0-5.23,0-.64,0-.68L18,.93l-.38,0h-.07V.73h.15c.18,0,.5,0,.9,0l.94,0h2.64v0c0,.05,0,.14,0,.25,0,.34,0,.87,0,1Z" transform="translate(-1.62 -0.72)"/></svg>