<svg id="Layer_1" data-name="Layer 1" xmlns="http://www.w3.org/2000/svg" viewBox="0 0 24 9"><defs><style>.cls-1{fill:#c8cbcc;}.cls-2{fill:#819097;}</style></defs><title>Wired-press-logo</title><rect class="cls-1" x="19.2" y="1.63" width="4.46" height="4.54"/><rect class="cls-1" x="10.32" y="1.63" width="4.46" height="4.54"/><path class="cls-1" d="M9.23,2.86V2.34H7.07v.52h.75v2H7.07v.52H9.23V4.91H8.41v-2Z"/><path class="cls-2" d="M13.42,4s.46,0,.46-.87a.72.72,0,0,0-.76-.79H11.35V5.4h.6V4.22h1c.35,0,.35.52.35.52v.67h.61V4.68C13.88,4,13.42,4,13.42,4Zm-.63-.3h-.85V2.88h.86s.46-.07.46.37S13.17,3.71,12.79,3.71Z"/><polygon class="cls-1" points="15.6 2.35 15.6 2.85 16.02 2.85 16.02 4.91 15.6 4.91 15.6 5.42 18.2 5.42 18.2 4.42 17.69 4.42 17.69 4.91 16.58 4.91 16.58 4.08 17.4 4.08 17.4 3.58 16.58 3.58 16.58 2.85 17.64 2.85 17.64 3.34 18.2 3.34 18.2 2.35 15.6 2.35"/><path class="cls-2" d="M22.88,4.3V3.44c0-1.23-1.36-1.08-1.36-1.08H20.19V5.46h1.62A1.05,1.05,0,0,0,22.88,4.3Zm-.61,0s0,.6-.48.6h-1v-2h.93s.52,0,.52.65Z"/><rect class="cls-1" x="1.41" y="1.63" width="4.46" height="4.54"/><polygon class="cls-2" points="1.79 2.36 2.4 2.36 2.83 4.69 3.37 2.36 4.04 2.38 4.58 4.74 4.99 2.36 5.58 2.36 4.95 5.42 4.19 5.42 3.7 3.19 3.17 5.43 2.42 5.43 1.79 2.36"/></svg>